<svg width="200" height="200" viewBox="0 0 200 200" xmlns="http://www.w3.org/2000/svg">
  <rect width="100%" height="100%" fill="#000"/>
  <circle cx="100" cy="100" r="80" fill="none" stroke="#fff" stroke-width="10"/>
  <path d="M180 100a80 80 0 0 0-80-80q40 40 40 20-20 40 40 60" fill="#fff" stroke="#fff"/>
  <circle cx="100" cy="100" r="70" fill="#000"/>
  <circle cx="100" cy="100" r="65" fill="none" stroke="#fff" stroke-width="10"/>
  <path d="M100 20a80 80 0 0 1 80 80m-80 80a80 80 0 0 1-80-80m80-80a80 80 0 0 0-80 80m80 80a80 80 0 0 0 80-80" fill="none" stroke="#fff" stroke-width="2" stroke-dasharray="5,5"/>
</svg>